<?xml version="1.0" encoding="utf-8"?>
<!-- Generator: Adobe Illustrator 26.3.1, SVG Export Plug-In . SVG Version: 6.00 Build 0)  -->
<svg version="1.1" id="Capa_1" xmlns="http://www.w3.org/2000/svg" xmlns:xlink="http://www.w3.org/1999/xlink" x="0px" y="0px"
	 viewBox="0 0 331.8 331.8" style="enable-background:new 0 0 331.8 331.8;" xml:space="preserve">
<style type="text/css">
	.st0{fill:#3A3A3A;}
</style>
<g>
	<path class="st0" d="M309.3,215.1h-29.9v-80.8c0-41.6-27.4-77-65.2-89C213.5,20.2,192.9,0,167.7,0h-0.8c-25,0-45.4,19.8-46.6,44.5
		c-39.2,11.1-67.9,47.2-67.9,89.8v80.8H22.5v76.7H119c3.6,22.6,23.3,40,46.9,40s43.3-17.4,46.9-40h96.5V215.1L309.3,215.1z
		 M166.9,15h0.8c15.8,0,28.9,11.7,31.3,26.8c-4.2-0.6-8.5-0.9-12.8-0.9h-40.4c-3.4,0-6.7,0.2-10,0.5C138.1,26.5,151.2,15,166.9,15z
		 M165.9,316.8c-15.3,0-28.2-10.7-31.6-25h63.2C194.1,306.1,181.2,316.8,165.9,316.8z M294.3,276.8H37.5v-46.7h29.9v-95.8
		c0-43.2,35.1-78.3,78.3-78.3h40.4c43.2,0,78.3,35.1,78.3,78.3v95.8h29.9L294.3,276.8L294.3,276.8z"/>
</g>
</svg>
