<?xml version="1.0" encoding="utf-8"?>
<!-- Generator: Adobe Illustrator 26.3.1, SVG Export Plug-In . SVG Version: 6.00 Build 0)  -->
<svg version="1.1" id="Layer_1" xmlns="http://www.w3.org/2000/svg" xmlns:xlink="http://www.w3.org/1999/xlink" x="0px" y="0px"
	 viewBox="0 0 512 512" style="enable-background:new 0 0 512 512;" xml:space="preserve">
<style type="text/css">
	.st0{fill:url(#SVGID_1_);}
	.st1{fill:url(#SVGID_00000108294651806539036800000016369798417339406977_);}
	.st2{fill:url(#SVGID_00000031189697804188913890000013347332927995120558_);}
	.st3{fill:url(#SVGID_00000074409044850800871000000018298924379995818648_);}
	.st4{fill:url(#SVGID_00000026844828244165830230000016021405112285846679_);}
	.st5{fill:url(#SVGID_00000019672414289478264490000000857758560776031913_);}
	.st6{fill:url(#SVGID_00000029032492234552222610000016708304974619800741_);}
	.st7{fill:url(#SVGID_00000059284025601870004010000008726835780777104039_);}
	.st8{fill:url(#SVGID_00000142893701915171681470000002574825773179566474_);}
	.st9{fill:url(#SVGID_00000011714524116396491300000014205180422972442772_);}
	.st10{fill:url(#SVGID_00000172406827101220773100000009655913924851274896_);}
	.st11{fill:url(#SVGID_00000002366313207290508490000001936699424179920539_);}
	.st12{fill:url(#SVGID_00000129883989176640981380000007818182569907569280_);}
	.st13{fill:#E4EBF5;}
</style>
<g>
	
		<linearGradient id="SVGID_1_" gradientUnits="userSpaceOnUse" x1="256" y1="519" x2="256" y2="-81.1408" gradientTransform="matrix(1 0 0 -1 0 514)">
		<stop  offset="0" style="stop-color:#8ABDFF"/>
		<stop  offset="0.5101" style="stop-color:#6D5DFC"/>
		<stop  offset="1" style="stop-color:#5B0EEB"/>
	</linearGradient>
	<path class="st0" d="M512,256c0,13.3-1,26.3-3,39c-0.3,2.1-0.7,4.2-1,6.3c-0.6,3.2-1.2,6.3-1.9,9.4c-0.5,2.1-0.9,4.1-1.4,6.2
		c-1.8,7.2-3.8,14.3-6.2,21.2c-1,3-2.1,5.9-3.2,8.8c-1.5,3.9-3,7.8-4.7,11.6c-1.7,3.8-3.4,7.6-5.3,11.3l0,0
		c-1.4,2.8-2.8,5.5-4.3,8.2c-1,1.8-2,3.6-3,5.4s-2.1,3.6-3.1,5.3c-4.3,7-8.9,13.9-13.8,20.4c-1.2,1.6-2.5,3.3-3.7,4.9
		c-1.3,1.6-2.6,3.2-3.9,4.8c-0.6,0.8-1.3,1.6-2,2.4c-1.3,1.6-2.7,3.1-4,4.6c-6.8,7.7-14,14.9-21.7,21.7c-1.5,1.4-3.1,2.7-4.6,4
		c-0.8,0.7-1.6,1.3-2.4,2c-1.6,1.3-3.2,2.6-4.8,3.9c-1.6,1.3-3.2,2.5-4.9,3.7c-6.6,4.9-13.4,9.5-20.4,13.8c-1.8,1.1-3.5,2.1-5.3,3.1
		s-3.6,2-5.4,3c-2.7,1.5-5.5,2.9-8.2,4.3l0,0c-3.7,1.8-7.5,3.6-11.3,5.3c-3.8,1.7-7.7,3.2-11.6,4.7c-2.9,1.1-5.9,2.2-8.8,3.2
		c-6.9,2.4-14,4.4-21.2,6.2c-2.1,0.5-4.1,1-6.2,1.4c-3.1,0.7-6.3,1.3-9.4,1.9c-2.1,0.4-4.2,0.7-6.3,1c-12.7,1.9-25.7,3-39,3
		C114.6,512,0,397.4,0,256S114.6,0,256,0c13.3,0,26.3,1,39,3c2.1,0.3,4.2,0.7,6.3,1c3.2,0.6,6.3,1.2,9.4,1.9
		c2.1,0.5,4.1,0.9,6.2,1.4c7.2,1.8,14.3,3.8,21.2,6.2c3,1,5.9,2.1,8.8,3.2c3.9,1.5,7.8,3,11.6,4.7c3.8,1.7,7.6,3.4,11.3,5.3l0,0
		c2.8,1.4,5.5,2.8,8.2,4.3c1.8,1,3.6,2,5.4,3s3.6,2.1,5.3,3.1c7,4.3,13.9,8.9,20.4,13.8c1.6,1.2,3.3,2.5,4.9,3.7
		c1.6,1.3,3.2,2.6,4.8,3.9c0.8,0.6,1.6,1.3,2.4,2c1.6,1.3,3.1,2.7,4.6,4c7.7,6.8,14.9,14,21.7,21.7c1.4,1.5,2.7,3.1,4,4.6
		c0.7,0.8,1.3,1.6,2,2.4c1.3,1.6,2.6,3.2,3.9,4.8c1.3,1.6,2.5,3.2,3.7,4.9c4.9,6.6,9.5,13.4,13.8,20.4c1.1,1.8,2.1,3.5,3.1,5.3
		s2,3.6,3,5.4c1.5,2.7,2.9,5.5,4.3,8.2l0,0c1.8,3.7,3.6,7.5,5.3,11.3c1.7,3.8,3.2,7.7,4.7,11.6c1.1,2.9,2.2,5.9,3.2,8.8
		c2.4,6.9,4.4,14,6.2,21.2c0.5,2.1,1,4.1,1.4,6.2c0.7,3.1,1.3,6.3,1.9,9.4c0.4,2.1,0.7,4.2,1,6.3C511,229.7,512,242.7,512,256z"/>
	
		<linearGradient id="SVGID_00000095303753641311072730000018142092866143877555_" gradientUnits="userSpaceOnUse" x1="338.11" y1="17.1" x2="346.95" y2="17.1" gradientTransform="matrix(1 0 0 -1 0 514)">
		<stop  offset="0" style="stop-color:#8ABDFF"/>
		<stop  offset="0.5101" style="stop-color:#6D5DFC"/>
		<stop  offset="1" style="stop-color:#5B0EEB"/>
	</linearGradient>
	<path style="fill:url(#SVGID_00000095303753641311072730000018142092866143877555_);" d="M338.1,498.5c3-1,5.9-2.1,8.8-3.2
		C344,496.5,341.1,497.5,338.1,498.5z"/>
	
		<linearGradient id="SVGID_00000072259185147353381600000016363811652352717235_" gradientUnits="userSpaceOnUse" x1="338.11" y1="498.9" x2="346.95" y2="498.9" gradientTransform="matrix(1 0 0 -1 0 514)">
		<stop  offset="0" style="stop-color:#8ABDFF"/>
		<stop  offset="0.5101" style="stop-color:#6D5DFC"/>
		<stop  offset="1" style="stop-color:#5B0EEB"/>
	</linearGradient>
	<path style="fill:url(#SVGID_00000072259185147353381600000016363811652352717235_);" d="M338.1,13.5c3,1,5.9,2.1,8.8,3.2
		C344,15.5,341.1,14.5,338.1,13.5z"/>
	
		<linearGradient id="SVGID_00000178923975764855206160000006981059909635848868_" gradientUnits="userSpaceOnUse" x1="358.5" y1="25.95" x2="369.76" y2="25.95" gradientTransform="matrix(1 0 0 -1 0 514)">
		<stop  offset="0" style="stop-color:#8ABDFF"/>
		<stop  offset="0.5101" style="stop-color:#6D5DFC"/>
		<stop  offset="1" style="stop-color:#5B0EEB"/>
	</linearGradient>
	<path style="fill:url(#SVGID_00000178923975764855206160000006981059909635848868_);" d="M358.5,490.7c3.8-1.7,7.6-3.4,11.3-5.3
		C366.1,487.2,362.3,489,358.5,490.7z"/>
	
		<linearGradient id="SVGID_00000137103273470209747940000011041132063402510999_" gradientUnits="userSpaceOnUse" x1="358.5" y1="490.05" x2="369.76" y2="490.05" gradientTransform="matrix(1 0 0 -1 0 514)">
		<stop  offset="0" style="stop-color:#8ABDFF"/>
		<stop  offset="0.5101" style="stop-color:#6D5DFC"/>
		<stop  offset="1" style="stop-color:#5B0EEB"/>
	</linearGradient>
	<path style="fill:url(#SVGID_00000137103273470209747940000011041132063402510999_);" d="M358.5,21.3c3.8,1.7,7.6,3.4,11.3,5.3
		C366.1,24.8,362.3,23,358.5,21.3z"/>
	
		<linearGradient id="SVGID_00000175290589886410859840000016872439434779498911_" gradientUnits="userSpaceOnUse" x1="369.78" y1="30.75" x2="378.02" y2="30.75" gradientTransform="matrix(1 0 0 -1 0 514)">
		<stop  offset="0" style="stop-color:#8ABDFF"/>
		<stop  offset="0.5101" style="stop-color:#6D5DFC"/>
		<stop  offset="1" style="stop-color:#5B0EEB"/>
	</linearGradient>
	<path style="fill:url(#SVGID_00000175290589886410859840000016872439434779498911_);" d="M369.8,485.4c2.8-1.4,5.5-2.8,8.2-4.3
		C375.3,482.6,372.6,484,369.8,485.4z"/>
	
		<linearGradient id="SVGID_00000067232745280122936920000008836043964104274852_" gradientUnits="userSpaceOnUse" x1="369.78" y1="485.25" x2="378.02" y2="485.25" gradientTransform="matrix(1 0 0 -1 0 514)">
		<stop  offset="0" style="stop-color:#8ABDFF"/>
		<stop  offset="0.5101" style="stop-color:#6D5DFC"/>
		<stop  offset="1" style="stop-color:#5B0EEB"/>
	</linearGradient>
	<path style="fill:url(#SVGID_00000067232745280122936920000008836043964104274852_);" d="M369.8,26.6c2.8,1.4,5.5,2.8,8.2,4.3
		C375.3,29.4,372.6,28,369.8,26.6z"/>
	
		<linearGradient id="SVGID_00000090282290706181652880000016950457035583591557_" gradientUnits="userSpaceOnUse" x1="481.1" y1="140.1" x2="485.39" y2="140.1" gradientTransform="matrix(1 0 0 -1 0 514)">
		<stop  offset="0" style="stop-color:#8ABDFF"/>
		<stop  offset="0.5101" style="stop-color:#6D5DFC"/>
		<stop  offset="1" style="stop-color:#5B0EEB"/>
	</linearGradient>
	<path style="fill:url(#SVGID_00000090282290706181652880000016950457035583591557_);" d="M481.1,378c1.5-2.7,2.9-5.5,4.3-8.2
		C484,372.6,482.6,375.3,481.1,378z"/>
	
		<linearGradient id="SVGID_00000049223850412437446670000001147542659111436958_" gradientUnits="userSpaceOnUse" x1="481.1" y1="375.9" x2="485.39" y2="375.9" gradientTransform="matrix(1 0 0 -1 0 514)">
		<stop  offset="0" style="stop-color:#8ABDFF"/>
		<stop  offset="0.5101" style="stop-color:#6D5DFC"/>
		<stop  offset="1" style="stop-color:#5B0EEB"/>
	</linearGradient>
	<path style="fill:url(#SVGID_00000049223850412437446670000001147542659111436958_);" d="M485.4,142.2c-1.4-2.8-2.8-5.5-4.3-8.2
		C482.6,136.7,484,139.4,485.4,142.2z"/>
	
		<linearGradient id="SVGID_00000013169152284161751130000002591816383418178212_" gradientUnits="userSpaceOnUse" x1="485.39" y1="149.85" x2="490.65" y2="149.85" gradientTransform="matrix(1 0 0 -1 0 514)">
		<stop  offset="0" style="stop-color:#8ABDFF"/>
		<stop  offset="0.5101" style="stop-color:#6D5DFC"/>
		<stop  offset="1" style="stop-color:#5B0EEB"/>
	</linearGradient>
	<path style="fill:url(#SVGID_00000013169152284161751130000002591816383418178212_);" d="M485.4,369.8c1.8-3.7,3.6-7.5,5.3-11.3
		C489,362.3,487.2,366.1,485.4,369.8z"/>
	
		<linearGradient id="SVGID_00000061440694487723151980000006296067261966863291_" gradientUnits="userSpaceOnUse" x1="485.39" y1="366.15" x2="490.65" y2="366.15" gradientTransform="matrix(1 0 0 -1 0 514)">
		<stop  offset="0" style="stop-color:#8ABDFF"/>
		<stop  offset="0.5101" style="stop-color:#6D5DFC"/>
		<stop  offset="1" style="stop-color:#5B0EEB"/>
	</linearGradient>
	<path style="fill:url(#SVGID_00000061440694487723151980000006296067261966863291_);" d="M485.4,142.2c1.8,3.7,3.6,7.5,5.3,11.3
		C489,149.7,487.2,145.9,485.4,142.2z"/>
	
		<linearGradient id="SVGID_00000065058953835322236130000005203035985200511368_" gradientUnits="userSpaceOnUse" x1="495.37" y1="171.4" x2="498.55" y2="171.4" gradientTransform="matrix(1 0 0 -1 0 514)">
		<stop  offset="0" style="stop-color:#8ABDFF"/>
		<stop  offset="0.5101" style="stop-color:#6D5DFC"/>
		<stop  offset="1" style="stop-color:#5B0EEB"/>
	</linearGradient>
	<path style="fill:url(#SVGID_00000065058953835322236130000005203035985200511368_);" d="M495.4,347c1.1-2.9,2.2-5.9,3.2-8.8
		C497.5,341.1,496.5,344,495.4,347z"/>
	
		<linearGradient id="SVGID_00000088846976197939289160000003943363787901478844_" gradientUnits="userSpaceOnUse" x1="495.37" y1="344.6" x2="498.55" y2="344.6" gradientTransform="matrix(1 0 0 -1 0 514)">
		<stop  offset="0" style="stop-color:#8ABDFF"/>
		<stop  offset="0.5101" style="stop-color:#6D5DFC"/>
		<stop  offset="1" style="stop-color:#5B0EEB"/>
	</linearGradient>
	<path style="fill:url(#SVGID_00000088846976197939289160000003943363787901478844_);" d="M495.4,165c1.1,2.9,2.2,5.9,3.2,8.8
		C497.5,170.9,496.5,168,495.4,165z"/>
</g>
<polygon class="st13" points="384,228.6 283.4,228.6 283.4,128 228.6,128 228.6,228.6 128,228.6 128,283.4 228.6,283.4 228.6,384 
	283.4,384 283.4,283.4 384,283.4 "/>
<rect x="283.4" y="228.6" class="st13" width="100.6" height="54.9"/>
</svg>
