<?xml version="1.0" encoding="utf-8"?>
<!-- Generator: Adobe Illustrator 26.3.1, SVG Export Plug-In . SVG Version: 6.00 Build 0)  -->
<svg version="1.1" id="Layer_1" xmlns="http://www.w3.org/2000/svg" xmlns:xlink="http://www.w3.org/1999/xlink" x="0px" y="0px"
	 viewBox="0 0 32 32" style="enable-background:new 0 0 32 32;" xml:space="preserve">
<style type="text/css">
	.st0{fill:#3A3A3A;}
</style>
<g id="Layer_2_00000137123477512792254770000009507474227969038238_">
	<path class="st0" d="M16,29C8.8,29,3,23.2,3,16S8.8,3,16,3s13,5.8,13,13S23.2,29,16,29z M16,5C9.9,5,5,9.9,5,16s4.9,11,11,11
		s11-4.9,11-11S22.1,5,16,5z"/>
	<path class="st0" d="M16,23c-0.6,0-1-0.4-1-1V10c0-0.6,0.4-1,1-1s1,0.4,1,1v12C17,22.6,16.6,23,16,23z"/>
	<path class="st0" d="M22,17H10c-0.6,0-1-0.4-1-1s0.4-1,1-1h12c0.6,0,1,0.4,1,1S22.6,17,22,17z"/>
</g>
</svg>
